<?xml version="1.0" encoding="UTF-8"?>
<svg id="Layer_2" data-name="Layer 2" xmlns="http://www.w3.org/2000/svg" viewBox="0 0 198.16 195.2">
  <defs>
    <style>
      .cls-1 {
        fill: #fff;
        stroke-width: 0px;
      }
    </style>
  </defs>
  <g id="Layer_1-2" data-name="Layer 1">
    <path class="cls-1" d="m.65,1.44C-.44,15.06-.17,28.8,1.54,42.35c2.64,21,8.73,41.59,18.91,60.19,11.76,21.48,28.84,39.46,49.14,53.06,7.68,5.14,15.75,9.62,23.97,13.83,11.65,5.97,23.69,11.07,36.18,15.03,19.87,6.29,40.61,9.81,61.43,10.59,1.85.07,3.69.12,5.54.14s1.93-2.97,0-3c-19.43-.29-38.8-2.96-57.55-8.09-21.65-5.92-42.4-15.24-61.54-26.94-20.29-12.4-37.86-28.84-50.46-49.1-11.31-18.2-18.39-38.73-21.77-59.83-2.31-14.41-2.91-29.12-1.96-43.68.07-1.04.14-2.09.23-3.13C3.81-.48.81-.47.65,1.44h0Z"/>
  </g>
</svg>