<?xml version="1.0" encoding="UTF-8"?>
<svg id="Layer_1" data-name="Layer 1" xmlns="http://www.w3.org/2000/svg" viewBox="0 0 1920 214.35">
  <path d="m1920,116.28h-307.89l4.39-2.03-19.08,36.78c-.68,1.31-2.67,2.14-4.8,2.02-2.13-.12-3.86-1.18-4.16-2.54l-19.08-85.81,9.14.07-38.16,147.11c-.38,1.49-2.46,2.56-4.81,2.48-2.35-.08-4.23-1.28-4.37-2.79l-19.08-208.41,9.19.28-38.16,159.37c-.35,1.46-2.33,2.54-4.64,2.52-2.31-.02-4.24-1.13-4.52-2.6l-19.08-98.07,9.08.35-19.08,49.03c-.52,1.32-2.36,2.25-4.49,2.25h-400.7l4.39-2.03-19.08,36.78c-.68,1.31-2.67,2.14-4.8,2.02-2.14-.12-3.86-1.17-4.16-2.54l-19.08-85.81,9.14.07-38.16,147.11c-.38,1.49-2.46,2.56-4.81,2.48-2.35-.08-4.23-1.28-4.37-2.79L939.65,3.15l9.19.28-38.16,159.37c-.35,1.46-2.33,2.54-4.64,2.52-2.31-.02-4.24-1.13-4.52-2.6l-19.08-98.07,9.08.35-19.08,49.04c-.52,1.32-2.37,2.25-4.49,2.25h-400.7s4.39-2.03,4.39-2.03l-19.08,36.78c-.68,1.31-2.67,2.14-4.8,2.02-2.14-.13-3.86-1.18-4.16-2.54l-19.08-85.81,9.14.07-38.16,147.11c-.38,1.49-2.46,2.56-4.81,2.48-2.35-.08-4.23-1.28-4.37-2.79L367.22,3.15l9.19.28-38.16,159.37c-.35,1.46-2.33,2.54-4.64,2.52-2.31-.02-4.24-1.13-4.52-2.6l-19.08-98.07,9.08.35-19.08,49.04c-.52,1.32-2.36,2.25-4.49,2.25H4.62c-2.55,0-4.62-1.33-4.62-2.97s2.07-2.97,4.62-2.97,4.62,1.33,4.62,2.97h0l-4.62-2.97h290.89l-4.49,2.25,19.08-49.04c.54-1.39,2.54-2.33,4.77-2.24,2.22.09,4.03,1.18,4.31,2.6l19.08,98.07-9.16-.08L367.27,2.52c.36-1.5,2.43-2.59,4.79-2.52,2.36.07,4.26,1.28,4.4,2.8l19.08,208.41-9.18-.32,38.16-147.11c.38-1.44,2.34-2.5,4.62-2.48,2.28.02,4.2,1.1,4.53,2.55l19.08,85.81-8.97-.52,19.08-36.78c.63-1.21,2.4-2.03,4.39-2.03h400.7l-4.49,2.25,19.08-49.04c.54-1.39,2.54-2.33,4.77-2.24,2.22.09,4.03,1.18,4.31,2.6l19.08,98.08-9.16-.08L939.7,2.52c.36-1.5,2.43-2.59,4.79-2.52,2.36.07,4.26,1.27,4.4,2.79l19.08,208.41-9.18-.32,38.16-147.11c.38-1.44,2.34-2.5,4.61-2.48,2.28.02,4.2,1.1,4.53,2.55l19.08,85.81-8.97-.52,19.08-36.78c.63-1.21,2.4-2.03,4.39-2.03h400.7l-4.49,2.25,19.08-49.04c.54-1.39,2.54-2.33,4.77-2.24,2.22.09,4.03,1.18,4.31,2.6l19.08,98.07-9.16-.08L1512.13,2.52c.36-1.5,2.43-2.59,4.79-2.52,2.36.07,4.26,1.27,4.4,2.79l19.08,208.41-9.18-.32,38.16-147.11c.38-1.44,2.33-2.5,4.61-2.48,2.28.02,4.21,1.1,4.53,2.55l19.08,85.81-8.97-.52,19.08-36.78c.63-1.21,2.4-2.03,4.39-2.03h307.89M9.25,113.31" style="fill: #f34336; stroke-width: 0px;"/>
</svg>