<?xml version="1.0" encoding="UTF-8"?>
<svg id="Layer_1" data-name="Layer 1" xmlns="http://www.w3.org/2000/svg" viewBox="0 0 616.82 207.38">
  <defs>
    <style>
      .cls-1 {
        fill: #fff;
      }

      .cls-1, .cls-2 {
        stroke-width: 0px;
      }

      .cls-2 {
        fill: #231f20;
      }
    </style>
  </defs>
  <polyline class="cls-1" points="614.41 96.03 430.52 96.79 402.57 134.63 364.02 2.45 308.86 204.93 252.03 3.92 214.57 135.41 169.41 97.87 2.41 98.56"/>
  <path class="cls-2" d="m614.41,93.53c-9.39.04-18.77.08-28.16.12l-62.25.26c-21,.09-42,.17-63,.26-7.1.03-14.19.06-21.29.09-2.96.01-6.15-.32-9.1.04-2.01.24-3.03,2.31-4.15,3.82l-7.97,10.78c-5.65,7.65-11.3,15.3-16.96,22.95l-1.12,1.52,4.57.6c-4.35-14.91-8.7-29.82-13.05-44.73-6.92-23.74-13.85-47.48-20.77-71.22-1.58-5.41-3.16-10.82-4.73-16.23-.68-2.35-4.16-2.41-4.82,0-1.83,6.71-3.65,13.42-5.48,20.12-4.39,16.11-8.78,32.22-13.17,48.33-5.31,19.49-10.62,38.99-15.93,58.48-4.59,16.86-9.19,33.72-13.78,50.58-1.51,5.54-3.02,11.08-4.53,16.62-.67,2.48-2.01,5.42-2.18,8,0,.11-.07.24-.1.35h4.82c-1.88-6.65-3.76-13.29-5.64-19.94-4.51-15.97-9.03-31.93-13.54-47.9-5.49-19.43-10.98-38.85-16.48-58.28l-14.18-50.14-4.68-16.54c-.73-2.59-1.28-5.35-2.23-7.87-.04-.11-.07-.24-.1-.35-.67-2.38-4.14-2.38-4.82,0-4.21,14.79-8.43,29.58-12.64,44.38-6.72,23.6-13.44,47.19-20.16,70.79-1.55,5.44-3.1,10.88-4.65,16.32l4.18-1.1c-12.76-10.61-25.52-21.21-38.27-31.82-2.47-2.05-5.95-6.36-9.39-6.45-4.12-.1-8.25.03-12.37.05l-54.58.23c-21.25.09-42.49.18-63.74.26l-23.3.1c-3.88.02-7.85-.2-11.73.05-.18.01-.36,0-.53,0-3.22.01-3.22,5.01,0,5,18.82-.08,37.63-.16,56.45-.23,29.98-.12,59.96-.25,89.94-.37,6.87-.03,13.74-.06,20.61-.09l-1.77-.73c13.15,10.93,26.3,21.87,39.46,32.8,1.9,1.58,3.8,3.16,5.7,4.74,1.42,1.18,3.63.83,4.18-1.1,4.21-14.79,8.43-29.58,12.64-44.38,6.72-23.6,13.44-47.19,20.16-70.79,1.55-5.44,3.1-10.88,4.65-16.32h-4.82c1.88,6.65,3.76,13.29,5.64,19.94,4.51,15.97,9.03,31.93,13.54,47.9,5.49,19.43,10.98,38.85,16.48,58.28,4.73,16.71,9.45,33.43,14.18,50.14l4.68,16.54c.73,2.59,1.28,5.35,2.23,7.87.04.11.07.24.1.35.67,2.36,4.17,2.4,4.82,0,1.83-6.71,3.65-13.42,5.48-20.12,4.39-16.11,8.78-32.22,13.17-48.33,5.31-19.49,10.62-38.99,15.93-58.48,4.59-16.86,9.19-33.72,13.78-50.58,1.51-5.54,3.02-11.08,4.53-16.62.67-2.48,2.01-5.42,2.18-8,0-.11.07-.24.1-.35h-4.82c4.35,14.91,8.7,29.82,13.05,44.73,6.92,23.74,13.85,47.48,20.77,71.22,1.58,5.41,3.16,10.82,4.73,16.23.65,2.22,3.33,2.27,4.57.6,9.32-12.61,18.64-25.23,27.95-37.84l-2.16,1.24c20.72-.09,41.44-.17,62.16-.26,33.01-.14,66.03-.27,99.04-.41,7.56-.03,15.13-.06,22.69-.09,3.22-.01,3.22-5.01,0-5h0Z"/>
</svg>